<?xml version="1.0" standalone="no"?>
<!DOCTYPE svg PUBLIC "-//W3C//DTD SVG 20010904//EN"
 "http://www.w3.org/TR/2001/REC-SVG-20010904/DTD/svg10.dtd">
<svg version="1.0" xmlns="http://www.w3.org/2000/svg"
 width="140.000000pt" height="140.000000pt" viewBox="0 0 140.000000 140.000000"
 preserveAspectRatio="xMidYMid meet">
<metadata>
Created by potrace 1.11, written by Peter Selinger 2001-2013
</metadata>
<g transform="translate(0.000000,140.000000) scale(0.100000,-0.100000)"
fill="#000000" stroke="none">
<path d="M54 1238 c-4 -7 -3 -8 4 -4 8 5 11 -14 11 -64 -1 -38 -5 -68 -9 -65
-5 3 -12 1 -15 -5 -4 -6 -3 -10 2 -9 20 4 24 -2 12 -18 -8 -9 -9 -14 -4 -11 6
4 10 -31 10 -95 1 -91 4 -107 27 -149 19 -34 23 -49 14 -58 -8 -8 -7 -10 4 -6
21 8 126 -203 108 -217 -9 -6 -8 -7 4 -3 14 4 24 -6 43 -44 14 -27 25 -57 25
-65 0 -9 5 -13 10 -10 9 6 14 -11 13 -43 -1 -7 1 -11 4 -8 6 6 37 -43 53 -84
10 -24 12 -25 95 -22 84 3 85 4 102 35 10 18 18 34 19 37 1 3 5 15 9 28 l8 23
13 -27 c17 -32 17 -37 2 -29 -7 4 -4 0 6 -9 15 -12 17 -18 7 -30 -9 -11 -8
-14 6 -12 10 0 17 -4 16 -10 -1 -8 20 -11 65 -10 l67 1 27 58 c15 31 33 57 39
57 6 0 8 -7 5 -16 -3 -8 -2 -12 4 -9 6 3 10 -1 10 -10 0 -9 9 -30 21 -46 20
-28 24 -29 99 -29 92 0 71 -24 205 235 48 94 115 221 147 283 l59 114 -5 151
c-3 84 -5 164 -5 180 l-1 27 -104 0 c-85 0 -105 -3 -110 -16 -3 -8 -2 -13 2
-10 4 2 8 -22 9 -55 2 -41 -1 -59 -10 -59 -9 0 -9 -2 0 -8 17 -11 23 -73 9
-91 -8 -11 -8 -13 2 -7 7 4 12 1 12 -9 0 -9 -4 -14 -9 -10 -5 3 -13 1 -16 -5
-4 -6 -1 -9 6 -8 18 4 23 -75 8 -104 -8 -13 -14 -25 -14 -28 -1 -3 -8 -18 -15
-35 -7 -16 -14 -32 -15 -35 -1 -7 -59 -119 -86 -167 -11 -21 -27 -43 -35 -49
-7 -6 -11 -14 -8 -17 7 -7 -14 -47 -25 -47 -4 0 -18 25 -30 56 l-24 56 53 131
c28 73 55 139 59 147 4 8 7 94 6 190 l-1 175 -77 3 -77 3 -1 -38 c-1 -21 -1
-55 0 -76 1 -24 -2 -37 -8 -33 -5 4 -13 2 -16 -4 -4 -6 -1 -9 7 -8 10 2 13
-21 15 -102 1 -86 -2 -107 -15 -118 -10 -7 -11 -11 -4 -7 13 7 17 -7 5 -19 -5
-4 -9 -12 -9 -17 -1 -5 -2 -13 -3 -19 0 -5 -5 -10 -10 -10 -5 0 -8 11 -7 25 2
13 0 22 -4 20 -17 -10 -21 36 -20 200 1 93 1 178 1 188 -1 15 -13 17 -103 17
l-103 0 3 -56 c3 -45 1 -55 -10 -48 -10 6 -10 4 1 -9 16 -20 22 -207 7 -207
-5 0 -3 -7 4 -15 8 -10 9 -15 2 -15 -6 0 -9 -7 -6 -15 4 -8 2 -21 -4 -28 -5
-6 -13 -27 -17 -44 -8 -40 -30 -58 -23 -20 3 15 2 24 -2 22 -4 -3 -14 10 -21
28 -13 31 -14 107 -5 320 l4 87 -78 0 c-69 0 -78 -2 -83 -20 -3 -11 -1 -22 4
-25 4 -3 5 -13 2 -21 -8 -22 -7 -305 2 -329 11 -31 26 -68 36 -87 12 -24 11
-30 -3 -23 -7 4 -4 -1 6 -9 11 -9 16 -16 10 -16 -5 0 -4 -4 3 -8 6 -4 13 -16
15 -27 1 -11 5 -22 8 -25 3 -3 11 -18 18 -33 10 -23 10 -27 0 -21 -7 4 -5 -1
4 -11 16 -17 16 -19 0 -32 -9 -8 -11 -11 -3 -7 10 5 12 3 5 -7 -4 -8 -9 -19
-10 -26 -1 -6 -6 -19 -11 -28 -8 -13 -11 -14 -21 -3 -38 46 -201 374 -203 409
-1 13 1 97 5 187 l8 162 -105 0 c-69 0 -108 -4 -113 -12z m693 -628 c-1 -8 4
-21 13 -28 13 -11 11 -12 -10 -6 -22 5 -23 5 -8 -7 15 -13 15 -17 -2 -59 l-18
-45 -21 48 c-17 39 -18 52 -9 72 6 14 15 25 20 25 5 0 6 5 3 10 -3 6 -2 10 4
10 6 0 8 8 5 18 -5 14 -3 14 10 -3 9 -11 15 -26 13 -35z"/>
<path d="M875 1240 c-3 -5 -1 -10 4 -10 6 0 11 5 11 10 0 6 -2 10 -4 10 -3 0
-8 -4 -11 -10z"/>
<path d="M250 460 c0 -5 5 -10 11 -10 5 0 7 5 4 10 -3 6 -8 10 -11 10 -2 0 -4
-4 -4 -10z"/>
<path d="M385 200 c-3 -5 150 -8 345 -8 192 0 350 4 350 8 0 11 -688 11 -695
0z"/>
<path d="M392 135 c0 -16 2 -22 5 -12 2 9 2 23 0 30 -3 6 -5 -1 -5 -18z"/>
<path d="M480 152 c0 -5 -8 -9 -17 -9 -36 0 -43 -3 -43 -18 0 -8 7 -15 15 -15
8 0 15 5 15 10 0 6 7 10 15 10 8 0 15 -4 15 -10 0 -5 5 -10 11 -10 6 0 9 7 6
14 -4 10 -1 13 9 9 7 -3 14 -9 14 -13 0 -13 39 -8 44 5 2 6 -5 17 -15 23 -16
10 -19 9 -19 -4 0 -15 -2 -15 -25 0 -14 9 -25 12 -25 8z"/>
<path d="M722 135 c0 -16 2 -22 5 -12 2 9 2 23 0 30 -3 6 -5 -1 -5 -18z"/>
<path d="M834 151 c-5 -5 -20 -11 -34 -13 -26 -3 -31 -21 -8 -25 15 -3 65 33
57 41 -3 3 -10 2 -15 -3z"/>
<path d="M901 138 c-1 -28 21 -39 34 -18 3 6 11 10 16 10 6 0 7 -4 4 -10 -3
-5 1 -10 9 -10 9 0 16 5 16 10 0 6 5 10 11 10 5 0 8 -4 5 -9 -3 -5 1 -12 10
-15 26 -10 34 -7 34 12 0 14 2 15 10 2 8 -13 10 -12 10 3 0 17 -14 21 -59 17
-13 -1 -28 4 -32 12 -7 10 -9 10 -9 1 0 -7 -7 -13 -15 -13 -8 0 -15 6 -15 13
0 9 -3 8 -9 -2 -7 -11 -9 -11 -14 0 -3 8 -6 2 -6 -13z m120 -21 c-10 -9 -11
-8 -5 6 3 10 9 15 12 12 3 -3 0 -11 -7 -18z"/>
<path d="M596 143 c-3 -3 -6 -12 -6 -20 0 -16 32 -17 48 -1 9 9 12 9 12 0 0
-17 37 -15 43 3 7 18 -10 30 -26 18 -14 -10 -38 -10 -53 -1 -6 4 -14 5 -18 1z"/>
<path d="M750 125 c0 -8 4 -15 8 -15 5 0 9 7 9 15 0 8 -4 15 -9 15 -4 0 -8 -7
-8 -15z"/>
<path d="M835 124 c-19 -15 -19 -15 9 -12 16 2 31 9 34 16 5 17 -19 15 -43 -4z"/>
</g>
</svg>
